<svg width="132.000000" height="132.000000" viewBox="0 0 132 132" fill="none" xmlns="http://www.w3.org/2000/svg" xmlns:xlink="http://www.w3.org/1999/xlink">
	<desc>
			Created with Pixso.
	</desc>
	<defs/>
	<path d="M117.36 48.46L119.4 25.26L97.74 20.11L86.4 0L66 9.17L45.6 0L34.25 20.05L12.6 25.14L14.64 48.39L0 66L14.64 83.53L12.6 106.79L34.25 111.94L45.6 132L66 122.76L86.4 131.93L97.74 111.88L119.4 106.73L117.36 83.53L132 66L117.36 48.46ZM126.78 66L113.23 49.75L113.37 48.11L115.11 28.36L95.11 23.6L84.7 5.14L66 13.56L47.28 5.14L36.87 23.54L16.88 28.24L18.76 49.69L5.2 65.99L18.76 82.24L16.88 103.7L36.88 108.46L47.28 126.84L65.99 118.37L84.71 126.79L95.11 108.39L115.11 103.64L113.23 82.24L126.78 66Z" fill="#F8F200" fill-opacity="1.000000" fill-rule="evenodd"/>
</svg>
