<svg width="32.000000" height="32.000000" viewBox="0 0 32 32" fill="none" xmlns="http://www.w3.org/2000/svg" xmlns:xlink="http://www.w3.org/1999/xlink">
	<desc>
			Created with Pixso.
	</desc>
	<defs>
		<clipPath id="clip15_45">
			<rect id="collections" rx="0.000000" width="31.000000" height="31.000000" transform="translate(0.500000 0.500000)" fill="white" fill-opacity="0"/>
		</clipPath>
	</defs>
	<g clip-path="url(#clip15_45)">
		<path id="Vector" d="M29.33 21.33L29.33 5.33C29.33 3.86 28.13 2.66 26.66 2.66L10.66 2.66C9.2 2.66 8 3.86 8 5.33L8 21.33C8 22.8 9.2 24 10.66 24L26.66 24C28.13 24 29.33 22.8 29.33 21.33ZM14.66 16L17.37 19.61L21.33 14.66L26.66 21.33L10.66 21.33L14.66 16ZM2.66 8L2.66 26.66C2.66 28.13 3.86 29.33 5.33 29.33L24 29.33L24 26.66L5.33 26.66L5.33 8L2.66 8Z" fill="#F8F200" fill-opacity="1.000000" fill-rule="nonzero"/>
	</g>
</svg>
